<svg width="283" height="276" viewBox="0 0 283 276" fill="none" xmlns="http://www.w3.org/2000/svg">
<g filter="url(#filter0_i_159_99)">
<circle cx="189" cy="73" r="73" fill="#705FD0"/>
</g>
<g filter="url(#filter1_bdi_159_99)">
<path fill-rule="evenodd" clip-rule="evenodd" d="M200 202H78V201.989C77.6675 201.996 77.3342 202 77 202C52.1472 202 32 181.853 32 157C32 140.134 41.2787 125.435 55.0099 117.73C55.0033 117.321 55 116.911 55 116.5C55 75.3548 88.3548 42 129.5 42C164.991 42 194.686 66.8177 202.177 100.046C229.334 101.186 251 123.563 251 151C251 178.832 228.705 201.458 201 201.99V202H200Z" fill="url(#paint0_radial_159_99)" fill-opacity="0.77"/>
</g>
<g style="mix-blend-mode:soft-light" filter="url(#filter2_di_159_99)">
<circle cx="77" cy="157" r="45" fill="#848484"/>
</g>
<path d="M105.635 220.89C106.571 220.005 108.116 220.564 108.261 221.84L109.445 232.231C110.016 237.244 105.096 241.12 100.344 239.401V239.401C95.5914 237.682 94.3292 231.569 98.0088 228.093L105.635 220.89Z" fill="#00D0E2"/>
<path d="M134.635 220.89C135.571 220.005 137.116 220.564 137.261 221.84L138.445 232.231C139.016 237.244 134.096 241.12 129.344 239.401V239.401C124.591 237.682 123.329 231.569 127.009 228.093L134.635 220.89Z" fill="#00D0E2"/>
<path d="M165.635 220.89C166.571 220.005 168.116 220.564 168.261 221.84L169.445 232.231C170.016 237.244 165.096 241.12 160.344 239.401V239.401C155.591 237.682 154.329 231.569 158.009 228.093L165.635 220.89Z" fill="#00D0E2"/>
<path d="M115.634 252.904C116.569 252.019 118.112 252.58 118.259 253.857L119.452 264.258C120.028 269.277 115.117 273.151 110.367 271.425V271.425C105.617 269.7 104.35 263.58 108.022 260.105L115.634 252.904Z" fill="#00D0E2"/>
<path d="M144.634 252.904C145.569 252.019 147.112 252.58 147.259 253.857L148.452 264.258C149.028 269.277 144.117 273.151 139.367 271.425V271.425C134.617 269.7 133.35 263.58 137.022 260.105L144.634 252.904Z" fill="#00D0E2"/>
<defs>
<filter id="filter0_i_159_99" x="106" y="0" width="156" height="159" filterUnits="userSpaceOnUse" color-interpolation-filters="sRGB">
<feFlood flood-opacity="0" result="BackgroundImageFix"/>
<feBlend mode="normal" in="SourceGraphic" in2="BackgroundImageFix" result="shape"/>
<feColorMatrix in="SourceAlpha" type="matrix" values="0 0 0 0 0 0 0 0 0 0 0 0 0 0 0 0 0 0 127 0" result="hardAlpha"/>
<feOffset dx="-10" dy="13"/>
<feGaussianBlur stdDeviation="12"/>
<feComposite in2="hardAlpha" operator="arithmetic" k2="-1" k3="1"/>
<feColorMatrix type="matrix" values="0 0 0 0 0.898039 0 0 0 0 0.952941 0 0 0 0 0.988235 0 0 0 0.67 0"/>
<feBlend mode="normal" in2="shape" result="effect1_innerShadow_159_99"/>
</filter>
<filter id="filter1_bdi_159_99" x="0" y="26" width="283" height="224" filterUnits="userSpaceOnUse" color-interpolation-filters="sRGB">
<feFlood flood-opacity="0" result="BackgroundImageFix"/>
<feGaussianBlur in="BackgroundImage" stdDeviation="8"/>
<feComposite in2="SourceAlpha" operator="in" result="effect1_backgroundBlur_159_99"/>
<feColorMatrix in="SourceAlpha" type="matrix" values="0 0 0 0 0 0 0 0 0 0 0 0 0 0 0 0 0 0 127 0" result="hardAlpha"/>
<feOffset dy="16"/>
<feGaussianBlur stdDeviation="16"/>
<feColorMatrix type="matrix" values="0 0 0 0 0 0 0 0 0 0.2015 0 0 0 0 0.3875 0 0 0 0.2 0"/>
<feBlend mode="normal" in2="effect1_backgroundBlur_159_99" result="effect2_dropShadow_159_99"/>
<feBlend mode="normal" in="SourceGraphic" in2="effect2_dropShadow_159_99" result="shape"/>
<feColorMatrix in="SourceAlpha" type="matrix" values="0 0 0 0 0 0 0 0 0 0 0 0 0 0 0 0 0 0 127 0" result="hardAlpha"/>
<feOffset dx="1" dy="2"/>
<feGaussianBlur stdDeviation="7"/>
<feComposite in2="hardAlpha" operator="arithmetic" k2="-1" k3="1"/>
<feColorMatrix type="matrix" values="0 0 0 0 1 0 0 0 0 1 0 0 0 0 1 0 0 0 1 0"/>
<feBlend mode="normal" in2="shape" result="effect3_innerShadow_159_99"/>
</filter>
<filter id="filter2_di_159_99" x="24" y="96" width="120" height="118" filterUnits="userSpaceOnUse" color-interpolation-filters="sRGB">
<feFlood flood-opacity="0" result="BackgroundImageFix"/>
<feColorMatrix in="SourceAlpha" type="matrix" values="0 0 0 0 0 0 0 0 0 0 0 0 0 0 0 0 0 0 127 0" result="hardAlpha"/>
<feOffset dx="-2" dy="-10"/>
<feGaussianBlur stdDeviation="3"/>
<feColorMatrix type="matrix" values="0 0 0 0 0 0 0 0 0 0 0 0 0 0 0 0 0 0 0.22 0"/>
<feBlend mode="normal" in2="BackgroundImageFix" result="effect1_dropShadow_159_99"/>
<feBlend mode="normal" in="SourceGraphic" in2="effect1_dropShadow_159_99" result="shape"/>
<feColorMatrix in="SourceAlpha" type="matrix" values="0 0 0 0 0 0 0 0 0 0 0 0 0 0 0 0 0 0 127 0" result="hardAlpha"/>
<feOffset dx="22" dy="12"/>
<feGaussianBlur stdDeviation="11"/>
<feComposite in2="hardAlpha" operator="arithmetic" k2="-1" k3="1"/>
<feColorMatrix type="matrix" values="0 0 0 0 1 0 0 0 0 1 0 0 0 0 1 0 0 0 0.74 0"/>
<feBlend mode="normal" in2="shape" result="effect2_innerShadow_159_99"/>
</filter>
<radialGradient id="paint0_radial_159_99" cx="0" cy="0" r="1" gradientUnits="userSpaceOnUse" gradientTransform="translate(109.164 76.1145) rotate(90.6693) scale(125.829 143.587)">
<stop stop-color="white"/>
<stop offset="1" stop-color="#99CEFF"/>
</radialGradient>
</defs>
</svg>
