<svg width="297" height="316" viewBox="0 0 297 316" fill="none" xmlns="http://www.w3.org/2000/svg">
<path d="M103.635 260.89C104.571 260.005 106.116 260.564 106.261 261.84L107.445 272.231C108.016 277.244 103.096 281.12 98.3437 279.401V279.401C93.5914 277.682 92.3292 271.569 96.0088 268.093L103.635 260.89Z" fill="#00D0E2"/>
<path d="M132.635 260.89C133.571 260.005 135.116 260.564 135.261 261.84L136.445 272.231C137.016 277.244 132.096 281.12 127.344 279.401V279.401C122.591 277.682 121.329 271.569 125.009 268.093L132.635 260.89Z" fill="#00D0E2"/>
<path d="M163.635 260.89C164.571 260.005 166.116 260.564 166.261 261.84L167.445 272.231C168.016 277.244 163.096 281.12 158.344 279.401V279.401C153.591 277.682 152.329 271.569 156.009 268.093L163.635 260.89Z" fill="#00D0E2"/>
<path d="M113.634 292.904C114.569 292.019 116.112 292.58 116.259 293.857L117.452 304.258C118.028 309.277 113.117 313.151 108.367 311.425V311.425C103.617 309.7 102.35 303.58 106.022 300.105L113.634 292.904Z" fill="#00D0E2"/>
<path d="M142.634 292.904C143.569 292.019 145.112 292.58 145.259 293.857L146.452 304.258C147.028 309.277 142.117 313.151 137.367 311.425V311.425C132.617 309.7 131.35 303.58 135.022 300.105L142.634 292.904Z" fill="#00D0E2"/>
<g filter="url(#filter0_i_159_74)">
<circle cx="189" cy="109" r="73" fill="#FFAB0B"/>
</g>
<circle cx="188.5" cy="108.5" r="100.5" stroke="#FFE200" stroke-width="16" stroke-linecap="round" stroke-dasharray="1 70"/>
<g filter="url(#filter1_bdi_159_74)">
<path fill-rule="evenodd" clip-rule="evenodd" d="M78 237.989C77.6675 237.996 77.3342 238 77 238C52.1472 238 32 217.853 32 193C32 176.134 41.2787 161.435 55.0099 153.73C55.0033 153.321 55 152.911 55 152.5C55 111.355 88.3548 78 129.5 78C164.991 78 194.686 102.818 202.177 136.046C229.334 137.186 251 159.563 251 187C251 215.167 228.167 238 200 238C199.33 238 198.663 237.987 198 237.962V238H78V237.989Z" fill="url(#paint0_radial_159_74)" fill-opacity="0.77"/>
</g>
<g style="mix-blend-mode:soft-light" filter="url(#filter2_di_159_74)">
<circle cx="77" cy="193" r="45" fill="#848484"/>
</g>
<defs>
<filter id="filter0_i_159_74" x="106" y="36" width="156" height="159" filterUnits="userSpaceOnUse" color-interpolation-filters="sRGB">
<feFlood flood-opacity="0" result="BackgroundImageFix"/>
<feBlend mode="normal" in="SourceGraphic" in2="BackgroundImageFix" result="shape"/>
<feColorMatrix in="SourceAlpha" type="matrix" values="0 0 0 0 0 0 0 0 0 0 0 0 0 0 0 0 0 0 127 0" result="hardAlpha"/>
<feOffset dx="-10" dy="13"/>
<feGaussianBlur stdDeviation="12"/>
<feComposite in2="hardAlpha" operator="arithmetic" k2="-1" k3="1"/>
<feColorMatrix type="matrix" values="0 0 0 0 1 0 0 0 0 0.886275 0 0 0 0 0 0 0 0 0.9 0"/>
<feBlend mode="normal" in2="shape" result="effect1_innerShadow_159_74"/>
</filter>
<filter id="filter1_bdi_159_74" x="0" y="62" width="283" height="224" filterUnits="userSpaceOnUse" color-interpolation-filters="sRGB">
<feFlood flood-opacity="0" result="BackgroundImageFix"/>
<feGaussianBlur in="BackgroundImage" stdDeviation="8"/>
<feComposite in2="SourceAlpha" operator="in" result="effect1_backgroundBlur_159_74"/>
<feColorMatrix in="SourceAlpha" type="matrix" values="0 0 0 0 0 0 0 0 0 0 0 0 0 0 0 0 0 0 127 0" result="hardAlpha"/>
<feOffset dy="16"/>
<feGaussianBlur stdDeviation="16"/>
<feColorMatrix type="matrix" values="0 0 0 0 0 0 0 0 0 0.2015 0 0 0 0 0.3875 0 0 0 0.2 0"/>
<feBlend mode="normal" in2="effect1_backgroundBlur_159_74" result="effect2_dropShadow_159_74"/>
<feBlend mode="normal" in="SourceGraphic" in2="effect2_dropShadow_159_74" result="shape"/>
<feColorMatrix in="SourceAlpha" type="matrix" values="0 0 0 0 0 0 0 0 0 0 0 0 0 0 0 0 0 0 127 0" result="hardAlpha"/>
<feOffset dx="1" dy="2"/>
<feGaussianBlur stdDeviation="7"/>
<feComposite in2="hardAlpha" operator="arithmetic" k2="-1" k3="1"/>
<feColorMatrix type="matrix" values="0 0 0 0 1 0 0 0 0 1 0 0 0 0 1 0 0 0 1 0"/>
<feBlend mode="normal" in2="shape" result="effect3_innerShadow_159_74"/>
</filter>
<filter id="filter2_di_159_74" x="24" y="132" width="120" height="118" filterUnits="userSpaceOnUse" color-interpolation-filters="sRGB">
<feFlood flood-opacity="0" result="BackgroundImageFix"/>
<feColorMatrix in="SourceAlpha" type="matrix" values="0 0 0 0 0 0 0 0 0 0 0 0 0 0 0 0 0 0 127 0" result="hardAlpha"/>
<feOffset dx="-2" dy="-10"/>
<feGaussianBlur stdDeviation="3"/>
<feColorMatrix type="matrix" values="0 0 0 0 0 0 0 0 0 0 0 0 0 0 0 0 0 0 0.22 0"/>
<feBlend mode="normal" in2="BackgroundImageFix" result="effect1_dropShadow_159_74"/>
<feBlend mode="normal" in="SourceGraphic" in2="effect1_dropShadow_159_74" result="shape"/>
<feColorMatrix in="SourceAlpha" type="matrix" values="0 0 0 0 0 0 0 0 0 0 0 0 0 0 0 0 0 0 127 0" result="hardAlpha"/>
<feOffset dx="22" dy="12"/>
<feGaussianBlur stdDeviation="11"/>
<feComposite in2="hardAlpha" operator="arithmetic" k2="-1" k3="1"/>
<feColorMatrix type="matrix" values="0 0 0 0 1 0 0 0 0 1 0 0 0 0 1 0 0 0 0.74 0"/>
<feBlend mode="normal" in2="shape" result="effect2_innerShadow_159_74"/>
</filter>
<radialGradient id="paint0_radial_159_74" cx="0" cy="0" r="1" gradientUnits="userSpaceOnUse" gradientTransform="translate(109.164 112.114) rotate(90.6693) scale(125.829 143.587)">
<stop stop-color="white"/>
<stop offset="1" stop-color="#99CEFF"/>
</radialGradient>
</defs>
</svg>
